<?xml version="1.0" encoding="UTF-8"?>
<svg width="81px" height="79px" viewBox="0 0 81 79" version="1.1" xmlns="http://www.w3.org/2000/svg" xmlns:xlink="http://www.w3.org/1999/xlink">
    <title>Group</title>
    <g id="Page-1" stroke="none" stroke-width="1" fill="none" fill-rule="evenodd">
        <g id="Artboard" transform="translate(-151.000000, -84.000000)" fill-rule="nonzero">
            <g id="Group" transform="translate(151.000000, 84.000000)">
                <polyline id="Path" fill="#262839" points="55.1914 41 43.0977 53.0938 43.0977 58.4688 37.7227 59.8125 37.7227 53.0938 25.6289 41"></polyline>
                <polygon id="Path" fill="#46485A" points="25.6289 35.625 55.1914 35.625 55.1914 41 25.6289 41"></polygon>
                <polyline id="Path" fill="#00BF6F" points="74.0039 34.2812 74.0039 49.0625 80.7227 49.0625 71.3164 58.4688 61.9102 49.0625 68.6289 49.0625 68.6289 34.2812"></polyline>
                <polyline id="Path" fill="#00BF6F" points="12.1914 34.2812 12.1914 49.0625 18.9102 49.0625 9.50391 58.4688 0.0976562 49.0625 6.81641 49.0625 6.81641 34.2812"></polyline>
                <path d="M52.5039,30.25 L28.3164,30.25 L28.3164,22.1875 C28.3164,19.2192 30.7231,16.8125 33.6914,16.8125 L47.1289,16.8125 C50.0972,16.8125 52.5039,19.2192 52.5039,22.1875 L52.5039,30.25 Z" id="Path" fill="#00BF6F"></path>
                <polygon id="Path" fill="#46485A" points="35.0352 0.6875 45.7852 0.6875 45.7852 11.4375 35.0352 11.4375"></polygon>
                <path d="M42.7448,79 L42.7448,72.832 L40.8728,72.832 L40.8728,71.296 L42.7448,71.296 L42.7448,69.328 L40.8728,69.328 L40.8728,67.792 L42.7448,67.792 L42.7448,61.864 L45.2408,61.864 L47.5208,67.792 L50.3528,67.792 L50.3528,61.864 L52.2488,61.864 L52.2488,67.792 L54.1208,67.792 L54.1208,69.328 L52.2488,69.328 L52.2488,71.296 L54.1208,71.296 L54.1208,72.832 L52.2488,72.832 L52.2488,79 L49.7288,79 L47.4488,72.832 L44.6168,72.832 L44.6168,79 L42.7448,79 Z M44.5688,67.792 L45.5768,67.792 L44.5688,64.816 L44.4728,64.816 L44.5688,67.792 Z M44.6168,71.296 L46.8728,71.296 L46.1528,69.328 L44.5688,69.328 L44.6168,71.296 Z M48.7928,71.296 L50.4008,71.296 L50.3528,69.328 L48.0728,69.328 L48.7928,71.296 Z M50.3528,75.616 L50.4488,75.616 L50.3768,72.832 L49.3688,72.832 L50.3528,75.616 Z" id="Shape" fill="#F5B953"></path>
                <path d="M27.7448,79 L27.7448,72.832 L25.8728,72.832 L25.8728,71.296 L27.7448,71.296 L27.7448,69.328 L25.8728,69.328 L25.8728,67.792 L27.7448,67.792 L27.7448,61.864 L30.2408,61.864 L32.5208,67.792 L35.3528,67.792 L35.3528,61.864 L37.2488,61.864 L37.2488,67.792 L39.1208,67.792 L39.1208,69.328 L37.2488,69.328 L37.2488,71.296 L39.1208,71.296 L39.1208,72.832 L37.2488,72.832 L37.2488,79 L34.7288,79 L32.4488,72.832 L29.6168,72.832 L29.6168,79 L27.7448,79 Z M29.5688,67.792 L30.5768,67.792 L29.5688,64.816 L29.4728,64.816 L29.5688,67.792 Z M29.6168,71.296 L31.8728,71.296 L31.1528,69.328 L29.5688,69.328 L29.6168,71.296 Z M33.7928,71.296 L35.4008,71.296 L35.3528,69.328 L33.0728,69.328 L33.7928,71.296 Z M35.3528,75.616 L35.4488,75.616 L35.3768,72.832 L34.3688,72.832 L35.3528,75.616 Z" id="Shape" fill="#F5B953"></path>
                <polygon id="Path" fill="#009255" points="32.3477 20.8438 35.0352 20.8438 35.0352 30.25 32.3477 30.25"></polygon>
                <polygon id="Path" fill="#009255" points="45.7852 20.8438 48.4727 20.8438 48.4727 30.25 45.7852 30.25"></polygon>
                <polygon id="Path" fill="#009255" points="67.2852 28.9062 69.9727 28.9062 69.9727 31.5938 67.2852 31.5938"></polygon>
                <polygon id="Path" fill="#009255" points="67.2852 23.5312 69.9727 23.5312 69.9727 26.2188 67.2852 26.2188"></polygon>
                <polygon id="Path" fill="#009255" points="72.6602 28.9062 75.3477 28.9062 75.3477 31.5938 72.6602 31.5938"></polygon>
                <polygon id="Path" fill="#009255" points="72.6602 23.5312 75.3477 23.5312 75.3477 26.2188 72.6602 26.2188"></polygon>
                <polygon id="Path" fill="#009255" points="5.47266 28.9062 8.16016 28.9062 8.16016 31.5938 5.47266 31.5938"></polygon>
                <polygon id="Path" fill="#009255" points="5.47266 23.5312 8.16016 23.5312 8.16016 26.2188 5.47266 26.2188"></polygon>
                <polygon id="Path" fill="#009255" points="10.8477 28.9062 13.5352 28.9062 13.5352 31.5938 10.8477 31.5938"></polygon>
                <polygon id="Path" fill="#009255" points="10.8477 23.5312 13.5352 23.5312 13.5352 26.2188 10.8477 26.2188"></polygon>
            </g>
        </g>
    </g>
</svg>