<?xml version="1.0" encoding="UTF-8"?>
<svg width="85px" height="84px" viewBox="0 0 85 84" version="1.1" xmlns="http://www.w3.org/2000/svg" xmlns:xlink="http://www.w3.org/1999/xlink">
    <title>Group</title>
    <g id="Page-1" stroke="none" stroke-width="1" fill="none" fill-rule="evenodd">
        <g id="Artboard" transform="translate(-149.000000, -82.000000)" fill-rule="nonzero">
            <g id="Group" transform="translate(149.000000, 82.000000)">
                <path d="M42.4102,82.3125 C31.2785,82.3125 21.2004,77.8002 13.9052,70.505 L8.81641,75.5938 L8.81641,60.8125 L23.5977,60.8125 L18.6553,65.7548 C24.7345,71.8339 33.1329,75.5938 42.4102,75.5938" id="Path" fill="#F5B953"></path>
                <path d="M42.4102,1.6875 C53.5418,1.6875 63.6199,6.19981 70.9151,13.495 L76.0039,8.40625 L76.0039,23.1875 L61.2227,23.1875 L66.165,18.2452 C60.0858,12.1661 51.6874,8.40625 42.4102,8.40625" id="Path" fill="#F5B953"></path>
                <path d="M42.4102,63.5 C54.2843,63.5 63.9102,53.8741 63.9102,42 C63.9102,30.1259 54.2843,20.5 42.4102,20.5 C30.536,20.5 20.9102,30.1259 20.9102,42 C20.9102,53.8741 30.536,63.5 42.4102,63.5 Z" id="Path" fill="#00BF6F"></path>
                <path d="M37.7448,50 L37.7448,43.832 L35.8728,43.832 L35.8728,42.296 L37.7448,42.296 L37.7448,40.328 L35.8728,40.328 L35.8728,38.792 L37.7448,38.792 L37.7448,32.864 L40.2408,32.864 L42.5208,38.792 L45.3528,38.792 L45.3528,32.864 L47.2488,32.864 L47.2488,38.792 L49.1208,38.792 L49.1208,40.328 L47.2488,40.328 L47.2488,42.296 L49.1208,42.296 L49.1208,43.832 L47.2488,43.832 L47.2488,50 L44.7288,50 L42.4488,43.832 L39.6168,43.832 L39.6168,50 L37.7448,50 Z M39.5688,38.792 L40.5768,38.792 L39.5688,35.816 L39.4728,35.816 L39.5688,38.792 Z M39.6168,42.296 L41.8728,42.296 L41.1528,40.328 L39.5688,40.328 L39.6168,42.296 Z M43.7928,42.296 L45.4008,42.296 L45.3528,40.328 L43.0728,40.328 L43.7928,42.296 Z M45.3528,46.616 L45.4488,46.616 L45.3768,43.832 L44.3688,43.832 L45.3528,46.616 Z" id="Shape" fill="#262839"></path>
                <path d="M42.4102,27.2188 L42.4102,24.5312 C32.7782,24.5312 24.9414,32.368 24.9414,42 L27.6289,42 C27.6289,33.8502 34.2603,27.2188 42.4102,27.2188 Z" id="Path" fill="#262839"></path>
                <path d="M59.8789,42 L57.1914,42 C57.1914,50.1498 50.56,56.7812 42.4102,56.7812 L42.4102,59.4688 C52.0422,59.4688 59.8789,51.632 59.8789,42 Z" id="Path" fill="#262839"></path>
                <path d="M17.2551,17.7533 L19.1888,19.6198 C22.1491,16.5507 25.6213,14.1319 29.5101,12.4321 L28.4351,9.97034 C24.2211,11.8099 20.4613,14.4289 17.2551,17.7533 Z" id="Path" fill="#F9D18B"></path>
                <path d="M34.0264,8.07568 C33.0804,8.30815 32.1398,8.58228 31.2288,8.89 L32.0914,11.4364 C32.9299,11.1529 33.798,10.9002 34.6688,10.6839 L34.0264,8.07568 Z" id="Path" fill="#F9D18B"></path>
                <path d="M39.6178,7.17273 C38.7,7.24529 37.7593,7.35817 36.8228,7.50732 L37.2474,10.1612 C38.1128,10.0215 38.9808,9.91801 39.8274,9.85351 L39.6178,7.17273 Z" id="Path" fill="#F9D18B"></path>
                <path d="M42.4102,3.03125 C52.8202,3.03125 62.6054,7.08534 69.9651,14.4451 C70.469,14.949 71.3612,14.949 71.8652,14.4451 L74.6602,11.6501 L74.6602,21.8438 L64.4665,21.8438 L67.115,19.1952 C67.6404,18.6698 67.6404,17.8206 67.115,17.2952 C60.5158,10.696 51.7425,7.0625 42.4102,7.0625 L42.4102,9.75 C50.5748,9.75 58.2772,12.764 64.2448,18.2653 L60.2726,22.2375 C59.8883,22.6218 59.7728,23.1996 59.981,23.7022 C60.1893,24.2047 60.6798,24.5312 61.2227,24.5312 L76.0039,24.5312 C76.7457,24.5312 77.3477,23.9306 77.3477,23.1875 L77.3477,8.40625 C77.3477,7.86338 77.0198,7.37156 76.5186,7.16463 C76.0133,6.95366 75.4382,7.07056 75.0539,7.45622 L70.9003,11.6097 C63.1536,4.33469 53.0889,0.34375 42.4102,0.34375 C19.4414,0.34375 0.753906,19.0299 0.753906,42 L3.44141,42 C3.44141,20.5134 20.9222,3.03125 42.4102,3.03125 Z" id="Path" fill="#F9D18B"></path>
                <path d="M67.5651,66.2466 L65.6314,64.3801 C62.6711,67.4493 59.1989,69.868 55.3101,71.5678 L56.3864,74.0296 C60.5991,72.19 64.3589,69.571 67.5651,66.2466 Z" id="Path" fill="#F9D18B"></path>
                <path d="M50.7939,75.9243 C51.7399,75.6918 52.6805,75.4177 53.5916,75.11 L52.7289,72.5636 C51.8904,72.8471 51.0224,73.0998 50.1516,73.3161 L50.7939,75.9243 Z" id="Path" fill="#F9D18B"></path>
                <path d="M45.2025,76.8274 C46.1203,76.7548 47.061,76.6419 47.9976,76.4928 L47.5729,73.8389 C46.7075,73.9786 45.8395,74.0821 44.9929,74.1466 L45.2025,76.8274 Z" id="Path" fill="#F9D18B"></path>
                <path d="M81.3789,42 C81.3789,63.4866 63.8981,80.9688 42.4102,80.9688 C32.0001,80.9688 22.2149,76.9147 14.8552,69.5549 C14.3513,69.051 13.4591,69.051 12.9552,69.5549 L10.1602,72.3499 L10.1602,62.1562 L20.3538,62.1562 L17.7053,64.8048 C17.1799,65.3302 17.1799,66.1794 17.7053,66.7048 C24.3045,73.304 33.0778,76.9375 42.4102,76.9375 L42.4102,74.25 C34.2455,74.25 26.5432,71.236 20.5756,65.7347 L24.5477,61.7625 C24.932,61.3782 25.0476,60.8004 24.8393,60.2978 C24.631,59.7953 24.1405,59.4688 23.5977,59.4688 L8.81641,59.4688 C8.07466,59.4688 7.47266,60.0694 7.47266,60.8125 L7.47266,75.5938 C7.47266,76.1366 7.80053,76.6284 8.30175,76.8354 C8.80431,77.045 9.38212,76.9281 9.76644,76.5438 L13.92,72.3903 C21.6667,79.6653 31.7314,83.6562 42.4102,83.6562 C65.3789,83.6562 84.0664,64.9701 84.0664,42 L81.3789,42 Z" id="Path" fill="#F9D18B"></path>
            </g>
        </g>
    </g>
</svg>