<?xml version="1.0" encoding="UTF-8"?>
<svg width="72px" height="69px" viewBox="0 0 72 69" version="1.1" xmlns="http://www.w3.org/2000/svg" xmlns:xlink="http://www.w3.org/1999/xlink">
    <title>Group</title>
    <g id="Page-1" stroke="none" stroke-width="1" fill="none" fill-rule="evenodd">
        <g id="Artboard" transform="translate(-155.000000, -89.000000)" fill-rule="nonzero">
            <g id="Group" transform="translate(155.000000, 89.000000)">
                <polyline id="Path" fill="#F9D18B" points="2.09766 56.2188 15.5352 56.2188 30.3164 68.3125 58.5352 68.3125 58.5352 60.25 35.6914 60.25 39.7227 56.2188 23.5977 40.0938 2.09766 40.0938"></polyline>
                <path d="M35.5813,31.404 C33.3293,28.168 32,24.2413 32,20 C32,8.95467 40.9547,0 52,0 C63.0453,0 72,8.95467 72,20 C72,31.0453 63.0453,40 52,40 C47.7587,40 43.832,38.6707 40.596,36.4187 L32,40 C32,40 33.8013,35.6787 35.5813,31.404 Z" id="Path" fill="#00BF6F"></path>
                <polygon id="Path" fill="#DB9B7C" points="26.6685 53.1338 28.5685 51.2337 36.6295 59.2947 34.7295 61.1948"></polygon>
                <polygon id="Path" fill="#262839" points="0.753906 36.0625 3.44141 36.0625 3.44141 60.25 0.753906 60.25"></polygon>
                <path d="M59.2135,18.6667 C56.2722,18.6667 53.8802,16.2747 53.8802,13.3333 C53.8802,10.392 56.2722,8 59.2135,8 C62.1549,8 64.5469,10.392 64.5469,13.3333 C64.5469,16.2747 62.1549,18.6667 59.2135,18.6667 Z M59.2135,10.6667 C57.7429,10.6667 56.5469,11.8627 56.5469,13.3333 C56.5469,14.804 57.7429,16 59.2135,16 C60.6842,16 61.8802,14.804 61.8802,13.3333 C61.8802,11.8627 60.6842,10.6667 59.2135,10.6667 Z" id="Shape" fill="#FFFFFF"></path>
                <path d="M40.547,26.6667 C40.547,23.7254 42.939,21.3334 45.8803,21.3334 C48.8216,21.3334 51.2136,23.7254 51.2136,26.6667 C51.2136,29.608 48.8216,32 45.8803,32 C42.939,32 40.547,29.608 40.547,26.6667 Z M48.547,26.6667 C48.547,25.196 47.351,24 45.8803,24 C44.4096,24 43.2136,25.196 43.2136,26.6667 C43.2136,28.1374 44.4096,29.3334 45.8803,29.3334 C47.351,29.3334 48.547,28.1374 48.547,26.6667 Z" id="Shape" fill="#FFFFFF"></path>
                <polygon id="Path" fill="#FFFFFF" points="64.1602 29.7228 42.8304 8.39305 40.9451 10.2784 62.2748 31.6081"></polygon>
            </g>
        </g>
    </g>
</svg>