<?xml version="1.0" encoding="UTF-8"?>
<svg width="64px" height="56px" viewBox="0 0 64 56" version="1.1" xmlns="http://www.w3.org/2000/svg" xmlns:xlink="http://www.w3.org/1999/xlink">
    <title>Group</title>
    <g id="Page-1" stroke="none" stroke-width="1" fill="none" fill-rule="evenodd">
        <g id="Artboard" transform="translate(-159.000000, -96.000000)" fill="#262839" fill-rule="nonzero">
            <g id="Group" transform="translate(159.000000, 96.000000)">
                <path d="M50.113,23.8497 L50.113,12.0492 C50.113,11.1462 49.4714,10.3799 48.5981,10.2092 L32.8361,1.10904 C32.256,0.774038 31.5413,0.774038 30.9611,1.10904 L14.8245,10.4255 C14.2444,10.7604 13.887,11.3794 13.887,12.0493 L13.887,23.8498 C7.66963,25.8059 0,29.8433 0,36.3578 C0,41.9482 5.9265,46.8045 15.9131,49.4525 L15.1681,52.864 C14.8486,54.3268 16.2983,55.5642 17.6964,55.0049 L27.0714,51.2549 C28.3116,50.759 28.6514,49.1557 27.7125,48.2 L20.7125,41.075 C19.671,40.0153 17.861,40.5333 17.5431,41.9892 L16.7143,45.7845 C8.80125,43.6525 3.75,40.006 3.75,36.3578 C3.75,33.1897 7.58575,29.9894 13.887,27.7998 L13.887,30.6823 C13.887,31.3522 14.2444,31.9712 14.8245,32.306 L31.0625,41.681 C31.6426,42.016 32.3574,42.016 32.9375,41.681 L49.1755,32.306 C49.7556,31.971 50.113,31.3522 50.113,30.6823 L50.113,27.7998 C56.4142,29.9894 60.25,33.1897 60.25,36.3578 C60.25,43.301 45.0002,46.8257 37.5112,47.4433 C36.4792,47.5285 35.7118,48.4343 35.7969,49.4663 C35.8812,50.488 36.7762,51.2657 37.8199,51.1807 C47.5825,50.3735 64,46.155 64,36.3578 C64,29.8427 56.3282,25.8053 50.113,23.8497 Z M20.4671,46.1762 L23.0637,48.8192 L19.5861,50.2103 L20.4671,46.1762 Z M31.8986,4.89779 L44.3866,12.1078 C42.862,12.988 33.0174,18.6718 32,19.2592 C30.89,18.6183 21.1776,13.0109 19.512,12.0492 L31.8986,4.89779 Z M17.637,15.2969 L30.125,22.5068 L30.125,36.8097 L17.637,29.5997 L17.637,15.2969 Z M46.363,29.5997 L33.875,36.8097 L33.875,22.5068 L46.363,15.2969 L46.363,29.5997 Z" id="Shape"></path>
            </g>
        </g>
    </g>
</svg>