<?xml version="1.0" encoding="UTF-8"?>
<svg width="64px" height="58px" viewBox="0 0 64 58" version="1.1" xmlns="http://www.w3.org/2000/svg" xmlns:xlink="http://www.w3.org/1999/xlink">
    <title>Group</title>
    <g id="Page-1" stroke="none" stroke-width="1" fill="none" fill-rule="evenodd">
        <g id="Artboard" transform="translate(-159.000000, -95.000000)" fill="#262839" fill-rule="nonzero">
            <g id="Group" transform="translate(159.000000, 95.000000)">
                <path d="M49.0013,35.9366 L37.7143,40.4189 C37.8035,37.4414 35.7159,34.76 32.732,34.2261 L24.6569,32.7799 C22.8835,28.7431 19.0695,25.9945 14.658,25.6688 C11.7551,25.4548 8.94838,26.3023 6.67601,28.0305 C6.35538,27.972 6.56738,28.0105 1.87476,27.9985 C0.839256,27.9985 -0.000244141,28.838 -0.000244141,29.8735 C-0.000244141,30.909 0.839256,31.7485 1.87476,31.7485 L4.46276,31.7485 L4.46276,53.5 L1.87488,53.5 C0.839381,53.5 -0.000244141,54.3395 -0.000244141,55.375 C-0.000244141,56.4105 0.839381,57.2500079 1.87488,57.2500079 L6.33788,57.2500079 C7.37338,57.2500079 8.21288,56.4105 8.21288,55.375 L8.21288,52.9998 L13.1228,52.9998 L33.858,57.2125 C34.2858,57.2995 34.7489,57.2369 35.1556,57.0064 L59.4241,43.2564 C60.2216,42.8045 60.5755,41.8424 60.2609,40.9815 C58.596,36.4246 53.5091,34.146 49.0013,35.9366 Z M33.9173,53.3979 L13.6846,49.2873 C13.3586,49.221 13.6328,49.2625 8.21301,49.2498 L8.21301,31.6485 C9.87238,30.052 12.0844,29.2389 14.3824,29.4089 C17.6576,29.6506 20.4551,31.8575 21.5094,35.031 C21.726,35.683 22.282,36.1644 22.9583,36.2855 L32.0714,37.9176 C33.3148,38.14 34.1476,39.3564 33.9349,40.634 L33.9309,40.6545 C33.9284,40.6674 33.926,40.6803 33.9238,40.6931 C33.701,41.9764 32.5144,42.8176 31.2813,42.5984 C31.2798,42.5981 31.2785,42.5979 31.277,42.5976 L31.2748,42.5973 C31.2739,42.5971 31.2729,42.5969 31.272,42.5968 C31.272,42.5968 31.2479,42.5924 31.2478,42.5924 L21.1005,40.7746 C20.0825,40.5924 19.1069,41.2701 18.9244,42.2896 C18.7418,43.3089 19.42,44.2833 20.4394,44.4659 C31.8189,46.5044 30.4758,46.2623 30.6181,46.2893 C33.165,46.7446 33.2883,46.0863 50.3854,39.422 C52.473,38.593 54.7138,39.3213 55.9735,40.9015 L33.9173,53.3979 Z" id="Shape"></path>
                <path d="M58.375,8.375 L41.585,8.375 C39.4416,3.76375 34.7927,0.75 29.625,0.75 C22.3534,0.75 16.4375,6.66587 16.4375,13.9375 C16.4375,21.2091 22.3534,27.125 29.625,27.125 C34.7285,27.125 39.3549,24.1606 41.5252,19.625 L45.2188,19.625 L45.2188,25.25 C45.2188,26.2855 46.0583,27.125 47.0938,27.125 L54.5938,27.125 C55.6292,27.125 56.4688,26.2855 56.4688,25.25 L56.4688,19.625 L58.375,19.625 C61.4766,19.625 64,17.1016 64,14 C64,10.8984 61.4766,8.375 58.375,8.375 Z M58.375,15.875 L54.5938,15.875 C53.5583,15.875 52.7188,16.7145 52.7188,17.75 L52.7188,23.375 L48.9688,23.375 L48.9688,17.75 C48.9688,16.7145 48.1292,15.875 47.0938,15.875 L40.2783,15.875 C39.4863,15.875 38.7797,16.3725 38.5129,17.1181 C37.1735,20.8606 33.6016,23.375 29.625,23.375 C24.4211,23.375 20.1875,19.1414 20.1875,13.9375 C20.1875,8.73362 24.4211,4.5 29.625,4.5 C33.6518,4.5 37.2382,7.05625 38.5495,10.861 C38.8102,11.6174 39.5221,12.125 40.3223,12.125 L58.375,12.125 C59.4089,12.125 60.25,12.9661 60.25,14 C60.25,15.0339 59.4089,15.875 58.375,15.875 Z" id="Shape"></path>
            </g>
        </g>
    </g>
</svg>