<?xml version="1.0" encoding="UTF-8"?>
<svg width="64px" height="64px" viewBox="0 0 64 64" version="1.1" xmlns="http://www.w3.org/2000/svg" xmlns:xlink="http://www.w3.org/1999/xlink">
    <title>Group</title>
    <g id="Page-1" stroke="none" stroke-width="1" fill="none" fill-rule="evenodd">
        <g id="Artboard" transform="translate(-159.000000, -92.000000)" fill="#262839" fill-rule="nonzero">
            <g id="Group" transform="translate(159.000000, 92.000000)">
                <path d="M46.6666,64 C37.1093,64 29.3333,56.224 29.3333,46.6667 C29.3333,37.1094 37.1093,29.3334 46.6666,29.3334 C56.2239,29.3334 63.9999,37.1094 63.9999,46.6667 C63.9999,56.224 56.2239,64 46.6666,64 Z M46.6666,33.3334 C39.3146,33.3334 33.3333,39.3147 33.3333,46.6667 C33.3333,54.0187 39.3146,60 46.6666,60 C54.0186,60 59.9999,54.0187 59.9999,46.6667 C59.9999,39.3147 54.0186,33.3334 46.6666,33.3334 Z" id="Shape"></path>
                <path d="M44.0002,54 C43.4695,54 42.9602,53.7893 42.5868,53.4133 L37.2535,48.08 C36.4721,47.2986 36.4721,46.032 37.2535,45.2506 C38.0348,44.4693 39.3015,44.4693 40.0828,45.2506 L43.9042,49.072 L51.8295,40.016 C52.5575,39.184 53.8188,39.104 54.6508,39.8293 C55.4828,40.5546 55.5682,41.8213 54.8402,42.6533 L45.5068,53.32 C45.1415,53.736 44.6215,53.984 44.0668,54.0026 C44.0455,54 44.0215,54 44.0002,54 Z" id="Path"></path>
                <path d="M24.5067,56 L7.33333,56 C3.29067,56 0,52.712 0,48.6667 L0,15.3333 C0,11.288 3.29067,8 7.33333,8 L12.3467,8 C13.4507,8 14.3467,8.896 14.3467,10 C14.3467,11.104 13.4507,12 12.3467,12 L7.33333,12 C5.496,12 4,13.496 4,15.3333 L4,48.6667 C4,50.504 5.496,52 7.33333,52 L24.5067,52 C25.6107,52 26.5067,52.896 26.5067,54 C26.5067,55.104 25.6107,56 24.5067,56 Z" id="Path"></path>
                <path d="M43.3334,25.5733 C42.2294,25.5733 41.3334,24.6773 41.3334,23.5733 L41.3334,15.3333 C41.3334,13.496 39.8374,12 38.0001,12 L33.0134,12 C31.9094,12 31.0134,11.104 31.0134,10 C31.0134,8.896 31.9094,8 33.0134,8 L38.0001,8 C42.0428,8 45.3334,11.288 45.3334,15.3333 L45.3334,23.5733 C45.3334,24.6773 44.4374,25.5733 43.3334,25.5733 Z" id="Path"></path>
                <path d="M30.0001,17.3333 L15.3334,17.3333 C12.7601,17.3333 10.6667,15.24 10.6667,12.6667 L10.6667,7.33333 C10.6667,6.22933 11.5627,5.33333 12.6667,5.33333 L15.6107,5.33333 C16.4827,2.25867 19.3174,0 22.6667,0 C26.0161,0 28.8507,2.25867 29.7227,5.33333 L32.6667,5.33333 C33.7707,5.33333 34.6667,6.22933 34.6667,7.33333 L34.6667,12.6667 C34.6667,15.24 32.5734,17.3333 30.0001,17.3333 Z M14.6667,9.33333 L14.6667,12.6667 C14.6667,13.0347 14.9654,13.3333 15.3334,13.3333 L30.0001,13.3333 C30.3681,13.3333 30.6667,13.0347 30.6667,12.6667 L30.6667,9.33333 L28.0001,9.33333 C26.8961,9.33333 26.0001,8.43733 26.0001,7.33333 C26.0001,5.496 24.5041,4 22.6667,4 C20.8294,4 19.3334,5.496 19.3334,7.33333 C19.3334,8.43733 18.4374,9.33333 17.3334,9.33333 L14.6667,9.33333 Z" id="Shape"></path>
                <path d="M35.3333,25.3334 L10,25.3334 C8.896,25.3334 8,24.4374 8,23.3334 C8,22.2294 8.896,21.3334 10,21.3334 L35.3333,21.3334 C36.4373,21.3334 37.3333,22.2294 37.3333,23.3334 C37.3333,24.4374 36.4373,25.3334 35.3333,25.3334 Z" id="Path"></path>
                <path d="M29.12,33.3334 L10,33.3334 C8.896,33.3334 8,32.4374 8,31.3334 C8,30.2294 8.896,29.3334 10,29.3334 L29.12,29.3334 C30.224,29.3334 31.12,30.2294 31.12,31.3334 C31.12,32.4374 30.224,33.3334 29.12,33.3334 Z" id="Path"></path>
                <path d="M24.5067,41.3334 L10,41.3334 C8.896,41.3334 8,40.4374 8,39.3334 C8,38.2294 8.896,37.3334 10,37.3334 L24.5067,37.3334 C25.6107,37.3334 26.5067,38.2294 26.5067,39.3334 C26.5067,40.4374 25.6107,41.3334 24.5067,41.3334 Z" id="Path"></path>
            </g>
        </g>
    </g>
</svg>