<?xml version="1.0" encoding="UTF-8"?>
<svg width="83px" height="83px" viewBox="0 0 83 83" version="1.1" xmlns="http://www.w3.org/2000/svg" xmlns:xlink="http://www.w3.org/1999/xlink">
    <title>Group</title>
    <g id="Page-1" stroke="none" stroke-width="1" fill="none" fill-rule="evenodd">
        <g id="Artboard" transform="translate(-150.000000, -82.000000)" fill-rule="nonzero">
            <g id="Group" transform="translate(150.000000, 82.000000)">
                <polygon id="Path" fill="#A1CDFB" points="57.8789 39.6562 61.9102 39.6562 61.9102 42.3438 57.8789 42.3438"></polygon>
                <polygon id="Path" fill="#A1CDFB" points="39.0664 54.4375 41.7539 54.4375 41.7539 62.5 39.0664 62.5"></polygon>
                <polygon id="Path" fill="#A1CDFB" points="39.0664 20.8438 41.7539 20.8438 41.7539 27.5625 39.0664 27.5625"></polygon>
                <path d="M71.3164,50.4062 C76.5113,50.4062 80.7227,46.1949 80.7227,41 C80.7227,35.8051 76.5113,31.5938 71.3164,31.5938 C66.1215,31.5938 61.9102,35.8051 61.9102,41 C61.9102,46.1949 66.1215,50.4062 71.3164,50.4062 Z" id="Path" fill="#F5B953"></path>
                <path d="M40.4102,20.8438 C45.6051,20.8438 49.8164,16.6324 49.8164,11.4375 C49.8164,6.24257 45.6051,2.03125 40.4102,2.03125 C35.2152,2.03125 31.0039,6.24257 31.0039,11.4375 C31.0039,16.6324 35.2152,20.8438 40.4102,20.8438 Z" id="Path" fill="#F5B953"></path>
                <path d="M40.4102,81.3125 C45.6051,81.3125 49.8164,77.1012 49.8164,71.9062 C49.8164,66.7113 45.6051,62.5 40.4102,62.5 C35.2152,62.5 31.0039,66.7113 31.0039,71.9062 C31.0039,77.1012 35.2152,81.3125 40.4102,81.3125 Z" id="Path" fill="#F5B953"></path>
                <polygon id="Path" fill="#C7E2FC" points="51.1602 31.5938 55.1914 36.9688 43.0977 50.4062 31.0039 36.9688 35.0352 31.5938"></polygon>
                <polyline id="Path" fill="#A1CDFB" points="47.1289 36.9688 43.0977 50.4062 39.0664 36.9688"></polyline>
                <polyline id="Path" fill="#A1CDFB" points="35.0352 31.5938 39.0664 36.9688 43.0977 31.5938 47.1289 36.9688 51.1602 31.5938"></polyline>
                <path d="M21.5977,50.4062 L24.2852,50.4062 C25.77,50.4062 26.9727,49.2036 26.9727,47.7188 L26.9727,27.5625 C26.9727,24.5942 24.566,22.1875 21.5977,22.1875 L5.47266,22.1875 C2.50431,22.1875 0.0976562,24.5942 0.0976562,27.5625 L0.0976562,47.7188 C0.0976562,49.2036 1.30031,50.4062 2.78516,50.4062 L5.47266,50.4062" id="Path" fill="#00BF6F"></path>
                <path d="M9.50391,22.1875 L9.50391,23.5312 C9.50391,25.7578 11.3086,27.5625 13.5352,27.5625 C15.7617,27.5625 17.5664,25.7578 17.5664,23.5312 L17.5664,22.1875" id="Path" fill="#EFBE9A"></path>
                <path d="M5.47266,50.4062 L2.78516,50.4062 C1.30031,50.4062 0.0976562,49.2036 0.0976562,47.7188 L0.0976562,45.0312 L5.47266,45.0312 L5.47266,50.4062 Z" id="Path" fill="#EFBE9A"></path>
                <path d="M24.2852,50.4062 L21.5977,50.4062 L21.5977,45.0312 L26.9727,45.0312 L26.9727,47.7188 C26.9727,49.2036 25.77,50.4062 24.2852,50.4062 Z" id="Path" fill="#EFBE9A"></path>
                <polygon id="Path" fill="#262839" points="5.47266 45.0312 21.5977 45.0312 21.5977 75.9375 5.47266 75.9375"></polygon>
                <path d="M13.5352,75.9375 L5.47266,75.9375 C3.98781,75.9375 2.78516,77.1402 2.78516,78.625 L2.78516,81.3125 L13.5352,81.3125 L13.5352,75.9375 Z" id="Path" fill="#00BF6F"></path>
                <path d="M13.5352,75.9375 L21.5977,75.9375 C23.0825,75.9375 24.2852,77.1402 24.2852,78.625 L24.2852,81.3125 L13.5352,81.3125 L13.5352,75.9375 Z" id="Path" fill="#00BF6F"></path>
                <path d="M8.16016,11.4375 L4.12891,11.4375 C2.64406,11.4375 1.44141,12.6402 1.44141,14.125 C1.44141,15.6098 2.64406,16.8125 4.12891,16.8125 L8.16016,16.8125" id="Path" fill="#DB9B7C"></path>
                <path d="M18.9102,11.4375 L22.9414,11.4375 C24.4262,11.4375 25.6289,12.6402 25.6289,14.125 C25.6289,15.6098 24.4262,16.8125 22.9414,16.8125 L18.9102,16.8125" id="Path" fill="#DB9B7C"></path>
                <path d="M20.2539,6.0625 L20.2539,15.4688 C20.2539,19.1788 17.2452,22.1875 13.5352,22.1875 C9.82506,22.1875 6.81641,19.1788 6.81641,15.4688 L6.81641,6.0625" id="Path" fill="#EFBE9A"></path>
                <path d="M17.5664,6.0625 C17.5664,9.03084 12.4722,11.4375 9.50391,11.4375 L4.12891,11.4375 L4.12891,6.0625 C4.12891,3.09416 6.53556,0.6875 9.50391,0.6875 L17.5664,0.6875 C20.5347,0.6875 22.9414,3.09416 22.9414,6.0625 L22.9414,11.4375 C19.9731,11.4375 17.5664,9.03084 17.5664,6.0625 Z" id="Path" fill="#976947"></path>
                <polygon id="Path" fill="#6B6D7E" points="12.1914 51.75 14.8789 51.75 14.8789 75.9375 12.1914 75.9375"></polygon>
                <path d="M50.0355,73.1935 L49.2668,70.6189 C59.2133,67.6492 66.9573,59.9468 69.9808,50.0151 L72.5527,50.7972 C69.2659,61.5929 60.8486,69.9658 50.0355,73.1935 Z" id="Path" fill="#A1CDFB"></path>
                <path d="M69.9809,31.9848 C66.9776,22.1177 59.2927,14.4328 49.4255,11.4295 L50.2076,8.85889 C60.9334,12.1242 69.2862,20.4769 72.5528,31.2028 L69.9809,31.9848 Z" id="Path" fill="#A1CDFB"></path>
                <path d="M71.3164,51.75 C65.3891,51.75 60.5664,46.9273 60.5664,41 C60.5664,35.0727 65.3891,30.25 71.3164,30.25 C77.2437,30.25 82.0664,35.0727 82.0664,41 C82.0664,46.9273 77.2437,51.75 71.3164,51.75 Z M71.3164,32.9375 C66.8699,32.9375 63.2539,36.5535 63.2539,41 C63.2539,45.4465 66.8699,49.0625 71.3164,49.0625 C75.7629,49.0625 79.3789,45.4465 79.3789,41 C79.3789,36.5535 75.7629,32.9375 71.3164,32.9375 Z" id="Shape" fill="#F9D18B"></path>
                <path d="M71.3162,46.375 C70.8956,46.375 70.4965,46.1774 70.2412,45.8375 L66.21,40.4625 L68.36,38.85 L71.1375,42.5534 L78.1989,29.6063 L80.5585,30.8936 L72.496,45.6749 C72.277,46.0753 71.8685,46.3387 71.413,46.3723 C71.3807,46.3736 71.3471,46.375 71.3162,46.375 Z" id="Path" fill="#262839"></path>
                <path d="M40.4102,22.1875 C34.4829,22.1875 29.6602,17.3648 29.6602,11.4375 C29.6602,5.51022 34.4829,0.6875 40.4102,0.6875 C46.3374,0.6875 51.1602,5.51022 51.1602,11.4375 C51.1602,17.3648 46.3374,22.1875 40.4102,22.1875 Z M40.4102,3.375 C35.9637,3.375 32.3477,6.99103 32.3477,11.4375 C32.3477,15.884 35.9637,19.5 40.4102,19.5 C44.8566,19.5 48.4727,15.884 48.4727,11.4375 C48.4727,6.99103 44.8566,3.375 40.4102,3.375 Z" id="Shape" fill="#F9D18B"></path>
                <path d="M40.41,16.8125 C39.9894,16.8125 39.5903,16.615 39.335,16.275 L35.3037,10.9 L37.4537,9.28748 L40.2312,12.9909 L47.2926,0.0438232 L49.6523,1.33114 L41.5898,16.1124 C41.3707,16.5128 40.9622,16.7762 40.5067,16.8098 C40.4745,16.8111 40.4409,16.8125 40.41,16.8125 Z" id="Path" fill="#262839"></path>
                <path d="M40.4102,82.6562 C34.4829,82.6562 29.6602,77.8335 29.6602,71.9062 C29.6602,65.979 34.4829,61.1562 40.4102,61.1562 C46.3374,61.1562 51.1602,65.979 51.1602,71.9062 C51.1602,77.8335 46.3374,82.6562 40.4102,82.6562 Z M40.4102,63.8438 C35.9637,63.8438 32.3477,67.4598 32.3477,71.9062 C32.3477,76.3527 35.9637,79.9688 40.4102,79.9688 C44.8566,79.9688 48.4727,76.3527 48.4727,71.9062 C48.4727,67.4598 44.8566,63.8438 40.4102,63.8438 Z" id="Shape" fill="#F9D18B"></path>
                <path d="M40.41,77.2812 C39.9894,77.2812 39.5903,77.0837 39.335,76.7437 L35.3037,71.3687 L37.4537,69.7562 L40.2312,73.4596 L47.2926,60.5126 L49.6523,61.7999 L41.5898,76.5811 C41.3707,76.9816 40.9622,77.2449 40.5067,77.2785 C40.4745,77.2799 40.4409,77.2812 40.41,77.2812 Z" id="Path" fill="#262839"></path>
            </g>
        </g>
    </g>
</svg>