<?xml version="1.0" encoding="UTF-8"?>
<svg width="64px" height="64px" viewBox="0 0 64 64" version="1.1" xmlns="http://www.w3.org/2000/svg" xmlns:xlink="http://www.w3.org/1999/xlink">
    <title>Group</title>
    <g id="Page-1" stroke="none" stroke-width="1" fill="none" fill-rule="evenodd">
        <g id="Artboard" transform="translate(-159.000000, -92.000000)" fill="#262839" fill-rule="nonzero">
            <g id="Group" transform="translate(159.000000, 92.000000)">
                <path d="M63.9111,2.9168 L63.7211,0.279295 L61.0836,0.0892952 C51.151,-0.625705 41.4145,3.00242 34.3724,10.0445 L26.173,18.2439 L23.5233,17.9453 C19.7828,17.5239 15.9276,17.958 12.3749,19.2012 C8.822,20.4443 5.53713,22.5083 2.87538,25.1699 L0,28.0454 L35.9549,64.0003 L38.8304,61.1249 C41.492,58.4633 43.556,55.1784 44.7991,51.6255 C46.0423,48.0727 46.4765,44.2175 46.055,40.477 L45.7564,37.8274 L53.9557,29.628 C60.9979,22.5859 64.6265,12.85 63.9111,2.9168 Z M60.2084,3.79192 C60.4719,8.84455 59.4751,13.8222 57.3769,18.3112 L45.6894,6.62355 C50.1785,4.5253 55.1562,3.52855 60.2084,3.79192 Z M5.30325,28.0454 L5.52712,27.8215 C10.0935,23.255 16.3649,21.0137 22.7774,21.6395 L10.8374,33.5795 L5.30325,28.0454 Z M36.1787,58.4733 L35.9549,58.6972 L30.4207,53.1632 L42.3607,41.2232 C42.9866,47.6362 40.7451,53.9068 36.1787,58.4733 Z M27.7691,50.5114 L13.489,36.2312 L37.024,12.6962 C38.626,11.0942 40.3857,9.69267 42.2637,8.50117 L55.4992,21.7368 C54.3077,23.6148 52.9062,25.3745 51.3042,26.9765 L27.7691,50.5114 Z" id="Shape"></path>
                <polygon id="Path" points="0.544189 49.2563 7.2857 42.5148 9.93695 45.1661 3.19544 51.9076"></polygon>
                <polygon id="Path" points="12.0798 60.7947 18.8213 54.0532 21.4726 56.7044 14.7311 63.4459"></polygon>
                <polygon id="Path" points="2.9812 58.3558 13.0531 48.2839 15.7044 50.9352 5.63245 61.0071"></polygon>
                <path d="M34.6937,20.7323 C32.4357,22.9903 32.4357,26.6644 34.6937,28.9224 C35.8227,30.0514 37.3057,30.6159 38.7889,30.6159 C40.2719,30.6159 41.755,30.0514 42.884,28.9224 C45.142,26.6644 45.142,22.9903 42.884,20.7321 C40.6259,18.4741 36.9517,18.4743 34.6937,20.7323 Z M40.2324,26.2708 C39.4364,27.0666 38.1414,27.0668 37.3454,26.2708 C36.5495,25.4748 36.5495,24.1798 37.3454,23.3839 C37.7434,22.9859 38.2661,22.7869 38.7889,22.7869 C39.3116,22.7869 39.8344,22.9859 40.2324,23.3838 C41.0284,24.1798 41.0284,25.4749 40.2324,26.2708 Z" id="Shape"></path>
            </g>
        </g>
    </g>
</svg>